<svg viewBox="0 0 400 120" xmlns="http://www.w3.org/2000/svg">
  <defs>
    <linearGradient id="weaveGrad" x1="0%" y1="0%" x2="100%" y2="100%">
      <stop offset="0%" style="stop-color:#3B82F6"/>
      <stop offset="100%" style="stop-color:#8B5CF6"/>
    </linearGradient>
  </defs>
  
  <!-- Icon: Woven grid pattern representing logic/connections -->
  <g transform="translate(20, 25)">
    <!-- Horizontal lines (warp) -->
    <rect x="0" y="8" width="60" height="6" rx="3" fill="url(#weaveGrad)"/>
    <rect x="0" y="28" width="60" height="6" rx="3" fill="url(#weaveGrad)"/>
    <rect x="0" y="48" width="60" height="6" rx="3" fill="url(#weaveGrad)"/>
    
    <!-- Vertical lines (weft) - woven effect -->
    <rect x="8" y="0" width="6" height="14" rx="3" fill="#3B82F6"/>
    <rect x="8" y="22" width="6" height="20" rx="3" fill="#3B82F6"/>
    <rect x="8" y="48" width="6" height="14" rx="3" fill="#3B82F6"/>
    
    <rect x="27" y="0" width="6" height="8" rx="3" fill="#6366F1"/>
    <rect x="27" y="14" width="6" height="20" rx="3" fill="#6366F1"/>
    <rect x="27" y="40" width="6" height="22" rx="3" fill="#6366F1"/>
    
    <rect x="46" y="0" width="6" height="14" rx="3" fill="#8B5CF6"/>
    <rect x="46" y="22" width="6" height="20" rx="3" fill="#8B5CF6"/>
    <rect x="46" y="48" width="6" height="14" rx="3" fill="#8B5CF6"/>
    
    <!-- Connection nodes -->
    <circle cx="11" cy="31" r="4" fill="#10B981"/>
    <circle cx="30" cy="11" r="4" fill="#10B981"/>
    <circle cx="49" cy="51" r="4" fill="#10B981"/>
  </g>
  
  <!-- Text -->
  <text x="95" y="72" font-family="system-ui, -apple-system, sans-serif" font-size="42" font-weight="600" fill="#1E293B">
    <tspan fill="url(#weaveGrad)">Logix</tspan><tspan fill="#475569">Weaver</tspan>
  </text>
</svg>